<svg width="32" height="33" viewBox="0 0 32 33" fill="none" xmlns="http://www.w3.org/2000/svg">
<path d="M16 28.5L14.1334 26.7667C11.8667 24.7667 10 23.0333 8.53335 21.5667C7.06669 20.1 5.86669 18.7667 5.06669 17.5667C4.26669 16.3667 3.60002 15.3 3.20002 14.3667C2.80002 13.4333 2.66669 12.3667 2.66669 11.3C2.66669 9.16668 3.33335 7.43334 4.80002 6.10001C6.26669 4.76667 8.00002 3.96667 10 3.96667C11.2 3.96667 12.2667 4.23334 13.3334 4.76667C14.4 5.30001 15.3334 5.96667 16 6.76667C16.8 5.83334 17.6 5.16667 18.6667 4.76667C19.7334 4.36667 20.8 3.96667 22 3.96667C24.1334 3.96667 25.8667 4.63334 27.2 6.10001C28.5334 7.43334 29.3334 9.30001 29.3334 11.3C29.3334 12.3667 29.2 13.3 28.8 14.3667C28.4 15.3 27.8667 16.3667 26.9334 17.5667C26 18.7667 24.9334 20.1 23.4667 21.5667C22 23.0333 20.1334 24.7667 17.8667 26.7667L16 28.5Z" fill="black"/>
</svg>
