<svg width="254" height="33" viewBox="0 0 254 33" fill="none" xmlns="http://www.w3.org/2000/svg">
<path d="M66.5 28.5V4.5H70.1923V28.5H66.5ZM90.5 28.5L73.8846 16.5L90.5 4.5V28.5Z" fill="white"/>
<g clip-path="url(#clip0_126_66)">
<path d="M123.5 23.7L134.7 16.5L123.5 9.3V23.7ZM127.5 32.5C125.26 32.5 123.18 32.02 121.26 31.22C119.34 30.42 117.58 29.3 116.14 27.86C114.7 26.42 113.58 24.66 112.78 22.74C111.98 20.82 111.5 18.74 111.5 16.5C111.5 14.26 111.98 12.18 112.78 10.26C113.58 8.34 114.7 6.58 116.14 5.14C117.58 3.7 119.34 2.58 121.26 1.78C123.18 0.98 125.26 0.5 127.5 0.5C129.74 0.5 131.82 0.98 133.74 1.78C135.66 2.58 137.42 3.7 138.86 5.14C140.3 6.58 141.42 8.34 142.22 10.26C143.02 12.18 143.5 14.26 143.5 16.5C143.5 18.74 143.02 20.82 142.22 22.74C141.42 24.66 140.3 26.42 138.86 27.86C137.42 29.3 135.66 30.42 133.74 31.22C131.82 32.02 129.74 32.5 127.5 32.5ZM127.5 29.3C131.02 29.3 134.06 28.02 136.62 25.62C139.02 23.22 140.3 20.18 140.3 16.5C140.3 12.82 139.02 9.94 136.62 7.38C134.06 4.98 131.02 3.7 127.5 3.7C123.98 3.7 120.94 4.98 118.38 7.38C115.82 9.78 114.7 12.98 114.7 16.5C114.7 20.02 115.98 23.06 118.38 25.62C120.94 28.02 123.98 29.3 127.5 29.3Z" fill="white"/>
</g>
<path d="M187.808 28.5V4.5H191.5V28.5H187.808ZM167.5 28.5V4.5L184.115 16.5L167.5 28.5Z" fill="white"/>
<defs>
<clipPath id="clip0_126_66">
<rect width="41" height="32" fill="white" transform="translate(106.5 0.5)"/>
</clipPath>
</defs>
</svg>
