<svg width="58" height="57" viewBox="0 0 58 57" fill="none" xmlns="http://www.w3.org/2000/svg">
<path d="M23 39L39.3333 28.5L23 18V39ZM28.8333 51.8334C25.5667 51.8334 22.5333 51.1334 19.7333 49.9667C16.9333 48.8 14.3667 47.1667 12.2667 45.0667C10.1667 42.9667 8.53333 40.4 7.36667 37.6C6.2 34.8 5.5 31.7667 5.5 28.5C5.5 25.2334 6.2 22.2 7.36667 19.4C8.53333 16.6 10.1667 14.0334 12.2667 11.9334C14.3667 9.83335 16.9333 8.20002 19.7333 7.03335C22.5333 5.86669 25.5667 5.16669 28.8333 5.16669C32.1 5.16669 35.1333 5.86669 37.9333 7.03335C40.7333 8.20002 43.3 9.83335 45.4 11.9334C47.5 14.0334 49.1333 16.6 50.3 19.4C51.4667 22.2 52.1667 25.2334 52.1667 28.5C52.1667 31.7667 51.4667 34.8 50.3 37.6C49.1333 40.4 47.5 42.9667 45.4 45.0667C43.3 47.1667 40.7333 48.8 37.9333 49.9667C35.1333 51.1334 32.1 51.8334 28.8333 51.8334ZM28.8333 47.1667C33.9667 47.1667 38.4 45.3 42.1333 41.8C45.6333 38.3 47.5 33.8667 47.5 28.5C47.5 23.1334 45.6333 18.9334 42.1333 15.2C38.4 11.7 33.9667 9.83335 28.8333 9.83335C23.7 9.83335 19.2667 11.7 15.5333 15.2C11.8 18.7 10.1667 23.3667 10.1667 28.5C10.1667 33.6334 12.0333 38.0667 15.5333 41.8C19.2667 45.3 23.7 47.1667 28.8333 47.1667Z" fill="black"/>
</svg>
