<svg width="278" height="70" viewBox="0 0 278 70" fill="none" xmlns="http://www.w3.org/2000/svg">
<path d="M7 55V15H13.1538V55H7ZM47 55L19.3077 35L47 15V55Z" fill="white"/>
<path d="M131 49.4L153.4 35L131 20.6V49.4ZM139 67C134.52 67 130.36 66.04 126.52 64.44C122.68 62.84 119.16 60.6 116.28 57.72C113.4 54.84 111.16 51.32 109.56 47.48C107.96 43.64 107 39.48 107 35C107 30.52 107.96 26.36 109.56 22.52C111.16 18.68 113.4 15.16 116.28 12.28C119.16 9.4 122.68 7.16 126.52 5.56C130.36 3.96 134.52 3 139 3C143.48 3 147.64 3.96 151.48 5.56C155.32 7.16 158.84 9.4 161.72 12.28C164.6 15.16 166.84 18.68 168.44 22.52C170.04 26.36 171 30.52 171 35C171 39.48 170.04 43.64 168.44 47.48C166.84 51.32 164.6 54.84 161.72 57.72C158.84 60.6 155.32 62.84 151.48 64.44C147.64 66.04 143.48 67 139 67ZM139 60.6C146.04 60.6 152.12 58.04 157.24 53.24C162.04 48.44 164.6 42.36 164.6 35C164.6 27.64 162.04 21.88 157.24 16.76C152.12 11.96 146.04 9.4 139 9.4C131.96 9.4 125.88 11.96 120.76 16.76C115.64 21.56 113.4 27.96 113.4 35C113.4 42.04 115.96 48.12 120.76 53.24C125.88 58.04 131.96 60.6 139 60.6Z" fill="white"/>
<path d="M267.846 55V15H274V55H267.846ZM234 55V15L261.692 35L234 55Z" fill="white"/>
</svg>
