<svg width="33" height="33" viewBox="0 0 33 33" fill="none" xmlns="http://www.w3.org/2000/svg">
<path d="M18.8334 28.1V25.3C20.8334 24.7667 22.4334 23.5667 23.6334 21.9667C24.8334 20.3667 25.5001 18.5 25.5001 16.3667C25.5001 14.2333 24.8334 12.3667 23.6334 10.7667C22.4334 9.16666 20.8334 7.96666 18.8334 7.43333V4.76666C21.6334 5.43333 23.9001 6.76666 25.6334 8.9C27.3667 11.1667 28.1667 13.7 28.1667 16.5C28.1667 19.3 27.3667 21.8333 25.6334 23.9667C23.9001 26.1 21.6334 27.5667 18.8334 28.1ZM4.16672 20.5V12.5H9.50005L16.1667 5.83333V27.1667L9.50005 20.5H4.16672ZM18.8334 21.8333V11.0333C19.9001 11.5667 20.7001 12.2333 21.2334 13.1667C21.7667 14.1 22.1667 15.1667 22.1667 16.3667C22.1667 17.4333 21.9001 18.5 21.2334 19.5667C20.7001 20.6333 19.9001 21.3 18.8334 21.8333ZM13.5001 12.2333L10.5667 15.1667H6.83338V17.8333H10.5667L13.5001 20.6333V12.2333Z" fill="black"/>
</svg>
